<mxfile host="app.diagrams.net" modified="2021-12-08T09:01:01.401Z" agent="5.0 (Windows NT 10.0; Win64; x64) AppleWebKit/537.36 (KHTML, like Gecko) Chrome/93.0.4577.82 Safari/537.36" etag="txkmdqU0LAxeQ-bbO5-l" version="15.9.1" type="github">
  <diagram id="4H1GNPo8OheD37s34kiN" name="第 1 页">
    <mxGraphModel dx="1778" dy="943" grid="1" gridSize="10" guides="1" tooltips="1" connect="1" arrows="1" fold="1" page="1" pageScale="1" pageWidth="827" pageHeight="1169" math="0" shadow="0">
      <root>
        <mxCell id="0" />
        <mxCell id="1" parent="0" />
        <mxCell id="9aVAmsFQlcjrHRue2oDb-4" value="" style="edgeStyle=orthogonalEdgeStyle;rounded=0;orthogonalLoop=1;jettySize=auto;html=1;" edge="1" parent="1" source="9aVAmsFQlcjrHRue2oDb-2" target="9aVAmsFQlcjrHRue2oDb-3">
          <mxGeometry relative="1" as="geometry" />
        </mxCell>
        <mxCell id="9aVAmsFQlcjrHRue2oDb-2" value="Actor" style="shape=umlActor;verticalLabelPosition=bottom;verticalAlign=top;html=1;outlineConnect=0;" vertex="1" parent="1">
          <mxGeometry x="70" y="80" width="30" height="60" as="geometry" />
        </mxCell>
        <mxCell id="9aVAmsFQlcjrHRue2oDb-6" value="" style="edgeStyle=orthogonalEdgeStyle;rounded=0;orthogonalLoop=1;jettySize=auto;html=1;" edge="1" parent="1" source="9aVAmsFQlcjrHRue2oDb-3" target="9aVAmsFQlcjrHRue2oDb-5">
          <mxGeometry relative="1" as="geometry" />
        </mxCell>
        <mxCell id="9aVAmsFQlcjrHRue2oDb-3" value="宠圈文章" style="rounded=1;whiteSpace=wrap;html=1;" vertex="1" parent="1">
          <mxGeometry x="190" y="80" width="120" height="60" as="geometry" />
        </mxCell>
        <mxCell id="9aVAmsFQlcjrHRue2oDb-8" value="" style="edgeStyle=orthogonalEdgeStyle;rounded=0;orthogonalLoop=1;jettySize=auto;html=1;" edge="1" parent="1" source="9aVAmsFQlcjrHRue2oDb-5" target="9aVAmsFQlcjrHRue2oDb-7">
          <mxGeometry relative="1" as="geometry" />
        </mxCell>
        <mxCell id="9aVAmsFQlcjrHRue2oDb-5" value="文章发布" style="rounded=1;whiteSpace=wrap;html=1;" vertex="1" parent="1">
          <mxGeometry x="390" y="80" width="120" height="60" as="geometry" />
        </mxCell>
        <mxCell id="9aVAmsFQlcjrHRue2oDb-10" value="" style="edgeStyle=orthogonalEdgeStyle;rounded=0;orthogonalLoop=1;jettySize=auto;html=1;" edge="1" parent="1" source="9aVAmsFQlcjrHRue2oDb-7" target="9aVAmsFQlcjrHRue2oDb-9">
          <mxGeometry relative="1" as="geometry" />
        </mxCell>
        <mxCell id="9aVAmsFQlcjrHRue2oDb-7" value="&lt;span&gt;上传图片/视频&lt;/span&gt;" style="rounded=1;whiteSpace=wrap;html=1;" vertex="1" parent="1">
          <mxGeometry x="560" y="80" width="120" height="60" as="geometry" />
        </mxCell>
        <mxCell id="9aVAmsFQlcjrHRue2oDb-14" value="" style="edgeStyle=orthogonalEdgeStyle;rounded=0;orthogonalLoop=1;jettySize=auto;html=1;" edge="1" parent="1" source="9aVAmsFQlcjrHRue2oDb-9" target="9aVAmsFQlcjrHRue2oDb-13">
          <mxGeometry relative="1" as="geometry" />
        </mxCell>
        <mxCell id="9aVAmsFQlcjrHRue2oDb-9" value="编辑文章内容" style="rounded=1;whiteSpace=wrap;html=1;" vertex="1" parent="1">
          <mxGeometry x="720" y="80" width="120" height="60" as="geometry" />
        </mxCell>
        <mxCell id="9aVAmsFQlcjrHRue2oDb-13" value="完成发布" style="rounded=1;whiteSpace=wrap;html=1;" vertex="1" parent="1">
          <mxGeometry x="880" y="80" width="120" height="60" as="geometry" />
        </mxCell>
        <mxCell id="9aVAmsFQlcjrHRue2oDb-19" value="" style="edgeStyle=orthogonalEdgeStyle;rounded=0;orthogonalLoop=1;jettySize=auto;html=1;" edge="1" parent="1" source="9aVAmsFQlcjrHRue2oDb-15" target="9aVAmsFQlcjrHRue2oDb-18">
          <mxGeometry relative="1" as="geometry" />
        </mxCell>
        <mxCell id="9aVAmsFQlcjrHRue2oDb-15" value="Actor" style="shape=umlActor;verticalLabelPosition=bottom;verticalAlign=top;html=1;outlineConnect=0;" vertex="1" parent="1">
          <mxGeometry x="70" y="250" width="30" height="60" as="geometry" />
        </mxCell>
        <mxCell id="9aVAmsFQlcjrHRue2oDb-21" value="" style="edgeStyle=orthogonalEdgeStyle;rounded=0;orthogonalLoop=1;jettySize=auto;html=1;" edge="1" parent="1" source="9aVAmsFQlcjrHRue2oDb-18" target="9aVAmsFQlcjrHRue2oDb-20">
          <mxGeometry relative="1" as="geometry" />
        </mxCell>
        <mxCell id="9aVAmsFQlcjrHRue2oDb-18" value="文章点赞" style="rounded=1;whiteSpace=wrap;html=1;" vertex="1" parent="1">
          <mxGeometry x="190" y="250" width="120" height="60" as="geometry" />
        </mxCell>
        <mxCell id="9aVAmsFQlcjrHRue2oDb-23" value="" style="edgeStyle=orthogonalEdgeStyle;rounded=0;orthogonalLoop=1;jettySize=auto;html=1;" edge="1" parent="1" source="9aVAmsFQlcjrHRue2oDb-20" target="9aVAmsFQlcjrHRue2oDb-22">
          <mxGeometry relative="1" as="geometry" />
        </mxCell>
        <mxCell id="9aVAmsFQlcjrHRue2oDb-20" value="添加点赞记录" style="rounded=1;whiteSpace=wrap;html=1;" vertex="1" parent="1">
          <mxGeometry x="390" y="250" width="120" height="60" as="geometry" />
        </mxCell>
        <mxCell id="9aVAmsFQlcjrHRue2oDb-25" value="" style="edgeStyle=orthogonalEdgeStyle;rounded=0;orthogonalLoop=1;jettySize=auto;html=1;" edge="1" parent="1" source="9aVAmsFQlcjrHRue2oDb-22" target="9aVAmsFQlcjrHRue2oDb-24">
          <mxGeometry relative="1" as="geometry" />
        </mxCell>
        <mxCell id="9aVAmsFQlcjrHRue2oDb-22" value="通知被点赞的文章发布者" style="rounded=1;whiteSpace=wrap;html=1;" vertex="1" parent="1">
          <mxGeometry x="580" y="250" width="120" height="60" as="geometry" />
        </mxCell>
        <mxCell id="9aVAmsFQlcjrHRue2oDb-28" value="" style="edgeStyle=orthogonalEdgeStyle;rounded=0;orthogonalLoop=1;jettySize=auto;html=1;" edge="1" parent="1" source="9aVAmsFQlcjrHRue2oDb-24" target="9aVAmsFQlcjrHRue2oDb-26">
          <mxGeometry relative="1" as="geometry" />
        </mxCell>
        <mxCell id="9aVAmsFQlcjrHRue2oDb-24" value="APP通知" style="rounded=1;whiteSpace=wrap;html=1;" vertex="1" parent="1">
          <mxGeometry x="580" y="390" width="120" height="60" as="geometry" />
        </mxCell>
        <mxCell id="9aVAmsFQlcjrHRue2oDb-26" value="Actor" style="shape=umlActor;verticalLabelPosition=bottom;verticalAlign=top;html=1;outlineConnect=0;" vertex="1" parent="1">
          <mxGeometry x="797" y="390" width="30" height="60" as="geometry" />
        </mxCell>
        <mxCell id="9aVAmsFQlcjrHRue2oDb-31" value="" style="edgeStyle=orthogonalEdgeStyle;rounded=0;orthogonalLoop=1;jettySize=auto;html=1;" edge="1" parent="1" source="9aVAmsFQlcjrHRue2oDb-29" target="9aVAmsFQlcjrHRue2oDb-30">
          <mxGeometry relative="1" as="geometry" />
        </mxCell>
        <mxCell id="9aVAmsFQlcjrHRue2oDb-29" value="Actor" style="shape=umlActor;verticalLabelPosition=bottom;verticalAlign=top;html=1;outlineConnect=0;" vertex="1" parent="1">
          <mxGeometry x="70" y="500" width="30" height="60" as="geometry" />
        </mxCell>
        <mxCell id="9aVAmsFQlcjrHRue2oDb-33" value="" style="edgeStyle=orthogonalEdgeStyle;rounded=0;orthogonalLoop=1;jettySize=auto;html=1;" edge="1" parent="1" source="9aVAmsFQlcjrHRue2oDb-30" target="9aVAmsFQlcjrHRue2oDb-32">
          <mxGeometry relative="1" as="geometry" />
        </mxCell>
        <mxCell id="9aVAmsFQlcjrHRue2oDb-30" value="文章评论" style="rounded=1;whiteSpace=wrap;html=1;" vertex="1" parent="1">
          <mxGeometry x="180" y="500" width="120" height="60" as="geometry" />
        </mxCell>
        <mxCell id="9aVAmsFQlcjrHRue2oDb-35" value="" style="edgeStyle=orthogonalEdgeStyle;rounded=0;orthogonalLoop=1;jettySize=auto;html=1;" edge="1" parent="1" source="9aVAmsFQlcjrHRue2oDb-32" target="9aVAmsFQlcjrHRue2oDb-34">
          <mxGeometry relative="1" as="geometry" />
        </mxCell>
        <mxCell id="9aVAmsFQlcjrHRue2oDb-32" value="添加评论记录" style="rounded=1;whiteSpace=wrap;html=1;" vertex="1" parent="1">
          <mxGeometry x="380" y="500" width="120" height="60" as="geometry" />
        </mxCell>
        <mxCell id="9aVAmsFQlcjrHRue2oDb-37" value="" style="edgeStyle=orthogonalEdgeStyle;rounded=0;orthogonalLoop=1;jettySize=auto;html=1;" edge="1" parent="1" source="9aVAmsFQlcjrHRue2oDb-34" target="9aVAmsFQlcjrHRue2oDb-36">
          <mxGeometry relative="1" as="geometry" />
        </mxCell>
        <mxCell id="9aVAmsFQlcjrHRue2oDb-34" value="通知被评论的文章发布者" style="rounded=1;whiteSpace=wrap;html=1;" vertex="1" parent="1">
          <mxGeometry x="580" y="500" width="120" height="60" as="geometry" />
        </mxCell>
        <mxCell id="9aVAmsFQlcjrHRue2oDb-39" value="" style="edgeStyle=orthogonalEdgeStyle;rounded=0;orthogonalLoop=1;jettySize=auto;html=1;" edge="1" parent="1" source="9aVAmsFQlcjrHRue2oDb-36" target="9aVAmsFQlcjrHRue2oDb-38">
          <mxGeometry relative="1" as="geometry" />
        </mxCell>
        <mxCell id="9aVAmsFQlcjrHRue2oDb-36" value="APP通知" style="rounded=1;whiteSpace=wrap;html=1;" vertex="1" parent="1">
          <mxGeometry x="580" y="640" width="120" height="60" as="geometry" />
        </mxCell>
        <mxCell id="9aVAmsFQlcjrHRue2oDb-38" value="Actor" style="shape=umlActor;verticalLabelPosition=bottom;verticalAlign=top;html=1;outlineConnect=0;" vertex="1" parent="1">
          <mxGeometry x="790" y="640" width="30" height="60" as="geometry" />
        </mxCell>
        <mxCell id="9aVAmsFQlcjrHRue2oDb-42" value="" style="edgeStyle=orthogonalEdgeStyle;rounded=0;orthogonalLoop=1;jettySize=auto;html=1;" edge="1" parent="1" source="9aVAmsFQlcjrHRue2oDb-40" target="9aVAmsFQlcjrHRue2oDb-41">
          <mxGeometry relative="1" as="geometry" />
        </mxCell>
        <mxCell id="9aVAmsFQlcjrHRue2oDb-40" value="Actor" style="shape=umlActor;verticalLabelPosition=bottom;verticalAlign=top;html=1;outlineConnect=0;" vertex="1" parent="1">
          <mxGeometry x="70" y="760" width="30" height="60" as="geometry" />
        </mxCell>
        <mxCell id="9aVAmsFQlcjrHRue2oDb-44" value="" style="edgeStyle=orthogonalEdgeStyle;rounded=0;orthogonalLoop=1;jettySize=auto;html=1;" edge="1" parent="1" source="9aVAmsFQlcjrHRue2oDb-41" target="9aVAmsFQlcjrHRue2oDb-43">
          <mxGeometry relative="1" as="geometry" />
        </mxCell>
        <mxCell id="9aVAmsFQlcjrHRue2oDb-41" value="文章收藏" style="rounded=1;whiteSpace=wrap;html=1;" vertex="1" parent="1">
          <mxGeometry x="180" y="760" width="120" height="60" as="geometry" />
        </mxCell>
        <mxCell id="9aVAmsFQlcjrHRue2oDb-46" value="" style="edgeStyle=orthogonalEdgeStyle;rounded=0;orthogonalLoop=1;jettySize=auto;html=1;" edge="1" parent="1" source="9aVAmsFQlcjrHRue2oDb-43" target="9aVAmsFQlcjrHRue2oDb-45">
          <mxGeometry relative="1" as="geometry" />
        </mxCell>
        <mxCell id="9aVAmsFQlcjrHRue2oDb-43" value="添加收藏记录" style="rounded=1;whiteSpace=wrap;html=1;" vertex="1" parent="1">
          <mxGeometry x="380" y="760" width="120" height="60" as="geometry" />
        </mxCell>
        <mxCell id="9aVAmsFQlcjrHRue2oDb-48" value="" style="edgeStyle=orthogonalEdgeStyle;rounded=0;orthogonalLoop=1;jettySize=auto;html=1;" edge="1" parent="1" source="9aVAmsFQlcjrHRue2oDb-45" target="9aVAmsFQlcjrHRue2oDb-47">
          <mxGeometry relative="1" as="geometry" />
        </mxCell>
        <mxCell id="9aVAmsFQlcjrHRue2oDb-45" value="通知被收藏的文章发布者" style="rounded=1;whiteSpace=wrap;html=1;" vertex="1" parent="1">
          <mxGeometry x="580" y="760" width="120" height="60" as="geometry" />
        </mxCell>
        <mxCell id="9aVAmsFQlcjrHRue2oDb-50" value="" style="edgeStyle=orthogonalEdgeStyle;rounded=0;orthogonalLoop=1;jettySize=auto;html=1;" edge="1" parent="1" source="9aVAmsFQlcjrHRue2oDb-47" target="9aVAmsFQlcjrHRue2oDb-49">
          <mxGeometry relative="1" as="geometry" />
        </mxCell>
        <mxCell id="9aVAmsFQlcjrHRue2oDb-47" value="APP通知" style="rounded=1;whiteSpace=wrap;html=1;" vertex="1" parent="1">
          <mxGeometry x="580" y="900" width="120" height="60" as="geometry" />
        </mxCell>
        <mxCell id="9aVAmsFQlcjrHRue2oDb-49" value="Actor" style="shape=umlActor;verticalLabelPosition=bottom;verticalAlign=top;html=1;outlineConnect=0;" vertex="1" parent="1">
          <mxGeometry x="790" y="900" width="30" height="60" as="geometry" />
        </mxCell>
        <mxCell id="9aVAmsFQlcjrHRue2oDb-51" value="兽兽日记APP" style="rounded=1;whiteSpace=wrap;html=1;" vertex="1" parent="1">
          <mxGeometry x="1690" y="70" width="120" height="60" as="geometry" />
        </mxCell>
        <mxCell id="9aVAmsFQlcjrHRue2oDb-52" value="宠圈" style="rounded=1;whiteSpace=wrap;html=1;" vertex="1" parent="1">
          <mxGeometry x="1390" y="220" width="120" height="60" as="geometry" />
        </mxCell>
        <mxCell id="9aVAmsFQlcjrHRue2oDb-53" value="宠物相册" style="rounded=1;whiteSpace=wrap;html=1;" vertex="1" parent="1">
          <mxGeometry x="1700" y="220" width="120" height="60" as="geometry" />
        </mxCell>
        <mxCell id="9aVAmsFQlcjrHRue2oDb-54" value="记事提醒" style="rounded=1;whiteSpace=wrap;html=1;" vertex="1" parent="1">
          <mxGeometry x="1910" y="220" width="120" height="60" as="geometry" />
        </mxCell>
        <mxCell id="9aVAmsFQlcjrHRue2oDb-55" value="消息" style="rounded=1;whiteSpace=wrap;html=1;" vertex="1" parent="1">
          <mxGeometry x="2138" y="220" width="120" height="60" as="geometry" />
        </mxCell>
        <mxCell id="9aVAmsFQlcjrHRue2oDb-56" value="我的" style="rounded=1;whiteSpace=wrap;html=1;" vertex="1" parent="1">
          <mxGeometry x="2530" y="220" width="120" height="60" as="geometry" />
        </mxCell>
        <mxCell id="9aVAmsFQlcjrHRue2oDb-59" value="" style="endArrow=none;html=1;rounded=0;entryX=0.5;entryY=1;entryDx=0;entryDy=0;exitX=0.622;exitY=-0.009;exitDx=0;exitDy=0;exitPerimeter=0;" edge="1" parent="1" source="9aVAmsFQlcjrHRue2oDb-52" target="9aVAmsFQlcjrHRue2oDb-51">
          <mxGeometry width="50" height="50" relative="1" as="geometry">
            <mxPoint x="1480" y="210" as="sourcePoint" />
            <mxPoint x="1690" y="140" as="targetPoint" />
          </mxGeometry>
        </mxCell>
        <mxCell id="9aVAmsFQlcjrHRue2oDb-61" value="" style="endArrow=none;html=1;rounded=0;exitX=0.5;exitY=0;exitDx=0;exitDy=0;" edge="1" parent="1" source="9aVAmsFQlcjrHRue2oDb-53">
          <mxGeometry width="50" height="50" relative="1" as="geometry">
            <mxPoint x="1474.6399999999999" y="229.46000000000004" as="sourcePoint" />
            <mxPoint x="1750" y="130" as="targetPoint" />
          </mxGeometry>
        </mxCell>
        <mxCell id="9aVAmsFQlcjrHRue2oDb-63" value="" style="endArrow=none;html=1;rounded=0;exitX=0.5;exitY=0;exitDx=0;exitDy=0;" edge="1" parent="1" source="9aVAmsFQlcjrHRue2oDb-55">
          <mxGeometry width="50" height="50" relative="1" as="geometry">
            <mxPoint x="1494.6399999999999" y="249.46000000000004" as="sourcePoint" />
            <mxPoint x="1750" y="130" as="targetPoint" />
          </mxGeometry>
        </mxCell>
        <mxCell id="9aVAmsFQlcjrHRue2oDb-64" value="" style="endArrow=none;html=1;rounded=0;exitX=0.377;exitY=0.011;exitDx=0;exitDy=0;exitPerimeter=0;" edge="1" parent="1" source="9aVAmsFQlcjrHRue2oDb-56">
          <mxGeometry width="50" height="50" relative="1" as="geometry">
            <mxPoint x="1504.6399999999999" y="259.46000000000004" as="sourcePoint" />
            <mxPoint x="1750" y="130" as="targetPoint" />
          </mxGeometry>
        </mxCell>
        <mxCell id="9aVAmsFQlcjrHRue2oDb-65" value="文章发布" style="rounded=1;whiteSpace=wrap;html=1;" vertex="1" parent="1">
          <mxGeometry x="1150" y="370" width="90" height="60" as="geometry" />
        </mxCell>
        <mxCell id="9aVAmsFQlcjrHRue2oDb-68" value="" style="endArrow=none;html=1;rounded=0;entryX=0.5;entryY=1;entryDx=0;entryDy=0;exitX=0.441;exitY=0.03;exitDx=0;exitDy=0;exitPerimeter=0;" edge="1" parent="1" source="9aVAmsFQlcjrHRue2oDb-65" target="9aVAmsFQlcjrHRue2oDb-52">
          <mxGeometry width="50" height="50" relative="1" as="geometry">
            <mxPoint x="1250" y="360" as="sourcePoint" />
            <mxPoint x="1300" y="310" as="targetPoint" />
          </mxGeometry>
        </mxCell>
        <mxCell id="9aVAmsFQlcjrHRue2oDb-70" value="文章点赞" style="rounded=1;whiteSpace=wrap;html=1;" vertex="1" parent="1">
          <mxGeometry x="1260" y="370" width="90" height="60" as="geometry" />
        </mxCell>
        <mxCell id="9aVAmsFQlcjrHRue2oDb-71" value="文章评论" style="rounded=1;whiteSpace=wrap;html=1;" vertex="1" parent="1">
          <mxGeometry x="1370" y="370" width="90" height="60" as="geometry" />
        </mxCell>
        <mxCell id="9aVAmsFQlcjrHRue2oDb-72" value="文章收藏" style="rounded=1;whiteSpace=wrap;html=1;" vertex="1" parent="1">
          <mxGeometry x="1470" y="370" width="90" height="60" as="geometry" />
        </mxCell>
        <mxCell id="9aVAmsFQlcjrHRue2oDb-73" value="" style="endArrow=none;html=1;rounded=0;exitX=0.5;exitY=0;exitDx=0;exitDy=0;" edge="1" parent="1" source="9aVAmsFQlcjrHRue2oDb-70">
          <mxGeometry width="50" height="50" relative="1" as="geometry">
            <mxPoint x="1440" y="330" as="sourcePoint" />
            <mxPoint x="1450" y="280" as="targetPoint" />
          </mxGeometry>
        </mxCell>
        <mxCell id="9aVAmsFQlcjrHRue2oDb-74" value="" style="endArrow=none;html=1;rounded=0;exitX=0.5;exitY=0;exitDx=0;exitDy=0;" edge="1" parent="1" source="9aVAmsFQlcjrHRue2oDb-71">
          <mxGeometry width="50" height="50" relative="1" as="geometry">
            <mxPoint x="1304.9999999999995" y="380" as="sourcePoint" />
            <mxPoint x="1450" y="280" as="targetPoint" />
          </mxGeometry>
        </mxCell>
        <mxCell id="9aVAmsFQlcjrHRue2oDb-75" value="" style="endArrow=none;html=1;rounded=0;exitX=0.5;exitY=0;exitDx=0;exitDy=0;" edge="1" parent="1" source="9aVAmsFQlcjrHRue2oDb-72">
          <mxGeometry width="50" height="50" relative="1" as="geometry">
            <mxPoint x="1404.9999999999995" y="380" as="sourcePoint" />
            <mxPoint x="1450" y="280" as="targetPoint" />
          </mxGeometry>
        </mxCell>
        <mxCell id="9aVAmsFQlcjrHRue2oDb-76" value="" style="endArrow=none;html=1;rounded=0;exitX=0.5;exitY=0;exitDx=0;exitDy=0;" edge="1" parent="1" source="9aVAmsFQlcjrHRue2oDb-54">
          <mxGeometry width="50" height="50" relative="1" as="geometry">
            <mxPoint x="1739.9999999999995" y="230" as="sourcePoint" />
            <mxPoint x="1750" y="130" as="targetPoint" />
          </mxGeometry>
        </mxCell>
        <mxCell id="9aVAmsFQlcjrHRue2oDb-77" value="文章搜索" style="rounded=1;whiteSpace=wrap;html=1;" vertex="1" parent="1">
          <mxGeometry x="1570" y="370" width="90" height="60" as="geometry" />
        </mxCell>
        <mxCell id="9aVAmsFQlcjrHRue2oDb-78" value="" style="endArrow=none;html=1;rounded=0;exitX=0.5;exitY=0;exitDx=0;exitDy=0;" edge="1" parent="1" source="9aVAmsFQlcjrHRue2oDb-77">
          <mxGeometry width="50" height="50" relative="1" as="geometry">
            <mxPoint x="1504.9999999999995" y="380" as="sourcePoint" />
            <mxPoint x="1450" y="280" as="targetPoint" />
          </mxGeometry>
        </mxCell>
        <mxCell id="9aVAmsFQlcjrHRue2oDb-81" value="图片上传" style="rounded=1;whiteSpace=wrap;html=1;" vertex="1" parent="1">
          <mxGeometry x="1680" y="370" width="90" height="60" as="geometry" />
        </mxCell>
        <mxCell id="9aVAmsFQlcjrHRue2oDb-82" value="文章搜索" style="rounded=1;whiteSpace=wrap;html=1;" vertex="1" parent="1">
          <mxGeometry x="1570" y="370" width="90" height="60" as="geometry" />
        </mxCell>
        <mxCell id="9aVAmsFQlcjrHRue2oDb-83" value="文章收藏" style="rounded=1;whiteSpace=wrap;html=1;" vertex="1" parent="1">
          <mxGeometry x="1470" y="370" width="90" height="60" as="geometry" />
        </mxCell>
        <mxCell id="9aVAmsFQlcjrHRue2oDb-84" value="文章搜索" style="rounded=1;whiteSpace=wrap;html=1;" vertex="1" parent="1">
          <mxGeometry x="1570" y="370" width="90" height="60" as="geometry" />
        </mxCell>
        <mxCell id="9aVAmsFQlcjrHRue2oDb-85" value="文章收藏" style="rounded=1;whiteSpace=wrap;html=1;" vertex="1" parent="1">
          <mxGeometry x="1470" y="370" width="90" height="60" as="geometry" />
        </mxCell>
        <mxCell id="9aVAmsFQlcjrHRue2oDb-86" value="文章评论" style="rounded=1;whiteSpace=wrap;html=1;" vertex="1" parent="1">
          <mxGeometry x="1370" y="370" width="90" height="60" as="geometry" />
        </mxCell>
        <mxCell id="9aVAmsFQlcjrHRue2oDb-87" value="文章搜索" style="rounded=1;whiteSpace=wrap;html=1;" vertex="1" parent="1">
          <mxGeometry x="1570" y="370" width="90" height="60" as="geometry" />
        </mxCell>
        <mxCell id="9aVAmsFQlcjrHRue2oDb-88" value="文章收藏" style="rounded=1;whiteSpace=wrap;html=1;" vertex="1" parent="1">
          <mxGeometry x="1470" y="370" width="90" height="60" as="geometry" />
        </mxCell>
        <mxCell id="9aVAmsFQlcjrHRue2oDb-89" value="图片删除" style="rounded=1;whiteSpace=wrap;html=1;" vertex="1" parent="1">
          <mxGeometry x="1790" y="370" width="90" height="60" as="geometry" />
        </mxCell>
        <mxCell id="9aVAmsFQlcjrHRue2oDb-91" value="" style="endArrow=none;html=1;rounded=0;entryX=0.5;entryY=1;entryDx=0;entryDy=0;exitX=0.5;exitY=0;exitDx=0;exitDy=0;" edge="1" parent="1" source="9aVAmsFQlcjrHRue2oDb-81" target="9aVAmsFQlcjrHRue2oDb-53">
          <mxGeometry width="50" height="50" relative="1" as="geometry">
            <mxPoint x="1690" y="350" as="sourcePoint" />
            <mxPoint x="1740" y="300" as="targetPoint" />
          </mxGeometry>
        </mxCell>
        <mxCell id="9aVAmsFQlcjrHRue2oDb-92" value="" style="endArrow=none;html=1;rounded=0;entryX=0.5;entryY=1;entryDx=0;entryDy=0;exitX=0.5;exitY=0;exitDx=0;exitDy=0;" edge="1" parent="1" source="9aVAmsFQlcjrHRue2oDb-89" target="9aVAmsFQlcjrHRue2oDb-53">
          <mxGeometry width="50" height="50" relative="1" as="geometry">
            <mxPoint x="1735" y="380" as="sourcePoint" />
            <mxPoint x="1770" y="290" as="targetPoint" />
          </mxGeometry>
        </mxCell>
        <mxCell id="9aVAmsFQlcjrHRue2oDb-93" value="提醒管理" style="rounded=1;whiteSpace=wrap;html=1;" vertex="1" parent="1">
          <mxGeometry x="1890" y="370" width="90" height="60" as="geometry" />
        </mxCell>
        <mxCell id="9aVAmsFQlcjrHRue2oDb-94" value="记事管理" style="rounded=1;whiteSpace=wrap;html=1;" vertex="1" parent="1">
          <mxGeometry x="2000" y="370" width="90" height="60" as="geometry" />
        </mxCell>
        <mxCell id="9aVAmsFQlcjrHRue2oDb-95" value="" style="endArrow=none;html=1;rounded=0;exitX=0.5;exitY=0;exitDx=0;exitDy=0;" edge="1" parent="1" source="9aVAmsFQlcjrHRue2oDb-93">
          <mxGeometry width="50" height="50" relative="1" as="geometry">
            <mxPoint x="1930" y="330" as="sourcePoint" />
            <mxPoint x="1970" y="280" as="targetPoint" />
          </mxGeometry>
        </mxCell>
        <mxCell id="9aVAmsFQlcjrHRue2oDb-96" value="" style="endArrow=none;html=1;rounded=0;exitX=0.5;exitY=0;exitDx=0;exitDy=0;entryX=0.5;entryY=1;entryDx=0;entryDy=0;" edge="1" parent="1" source="9aVAmsFQlcjrHRue2oDb-94" target="9aVAmsFQlcjrHRue2oDb-54">
          <mxGeometry width="50" height="50" relative="1" as="geometry">
            <mxPoint x="1965" y="380" as="sourcePoint" />
            <mxPoint x="1974.6" y="293.9000000000001" as="targetPoint" />
          </mxGeometry>
        </mxCell>
        <mxCell id="9aVAmsFQlcjrHRue2oDb-104" value="关注列表" style="rounded=1;whiteSpace=wrap;html=1;" vertex="1" parent="1">
          <mxGeometry x="2100" y="370" width="90" height="60" as="geometry" />
        </mxCell>
        <mxCell id="9aVAmsFQlcjrHRue2oDb-105" value="" style="endArrow=none;html=1;rounded=0;exitX=0.5;exitY=0;exitDx=0;exitDy=0;entryX=0.5;entryY=1;entryDx=0;entryDy=0;" edge="1" parent="1" source="9aVAmsFQlcjrHRue2oDb-104" target="9aVAmsFQlcjrHRue2oDb-55">
          <mxGeometry width="50" height="50" relative="1" as="geometry">
            <mxPoint x="2055" y="380" as="sourcePoint" />
            <mxPoint x="1980" y="290" as="targetPoint" />
          </mxGeometry>
        </mxCell>
        <mxCell id="9aVAmsFQlcjrHRue2oDb-106" value="点赞列表" style="rounded=1;whiteSpace=wrap;html=1;" vertex="1" parent="1">
          <mxGeometry x="2200" y="370" width="90" height="60" as="geometry" />
        </mxCell>
        <mxCell id="9aVAmsFQlcjrHRue2oDb-107" value="" style="endArrow=none;html=1;rounded=0;exitX=0.5;exitY=0;exitDx=0;exitDy=0;entryX=0.5;entryY=1;entryDx=0;entryDy=0;" edge="1" parent="1" source="9aVAmsFQlcjrHRue2oDb-106" target="9aVAmsFQlcjrHRue2oDb-55">
          <mxGeometry width="50" height="50" relative="1" as="geometry">
            <mxPoint x="2155" y="380" as="sourcePoint" />
            <mxPoint x="2208" y="290" as="targetPoint" />
          </mxGeometry>
        </mxCell>
        <mxCell id="9aVAmsFQlcjrHRue2oDb-108" value="" style="endArrow=none;html=1;rounded=0;entryX=0.5;entryY=1;entryDx=0;entryDy=0;exitX=0.5;exitY=0;exitDx=0;exitDy=0;" edge="1" parent="1" source="9aVAmsFQlcjrHRue2oDb-109" target="9aVAmsFQlcjrHRue2oDb-55">
          <mxGeometry width="50" height="50" relative="1" as="geometry">
            <mxPoint x="2340" y="370" as="sourcePoint" />
            <mxPoint x="2208" y="290" as="targetPoint" />
          </mxGeometry>
        </mxCell>
        <mxCell id="9aVAmsFQlcjrHRue2oDb-109" value="评论列表" style="rounded=1;whiteSpace=wrap;html=1;" vertex="1" parent="1">
          <mxGeometry x="2300" y="370" width="90" height="60" as="geometry" />
        </mxCell>
        <mxCell id="9aVAmsFQlcjrHRue2oDb-110" value="好友会话列表" style="rounded=1;whiteSpace=wrap;html=1;" vertex="1" parent="1">
          <mxGeometry x="2400" y="370" width="90" height="60" as="geometry" />
        </mxCell>
        <mxCell id="9aVAmsFQlcjrHRue2oDb-111" value="" style="endArrow=none;html=1;rounded=0;entryX=0.5;entryY=1;entryDx=0;entryDy=0;exitX=0.5;exitY=0;exitDx=0;exitDy=0;" edge="1" parent="1" source="9aVAmsFQlcjrHRue2oDb-110" target="9aVAmsFQlcjrHRue2oDb-55">
          <mxGeometry width="50" height="50" relative="1" as="geometry">
            <mxPoint x="2355" y="380" as="sourcePoint" />
            <mxPoint x="2208" y="290" as="targetPoint" />
          </mxGeometry>
        </mxCell>
        <mxCell id="9aVAmsFQlcjrHRue2oDb-112" value="系统设置" style="rounded=1;whiteSpace=wrap;html=1;" vertex="1" parent="1">
          <mxGeometry x="2500" y="370" width="90" height="60" as="geometry" />
        </mxCell>
        <mxCell id="9aVAmsFQlcjrHRue2oDb-113" value="" style="endArrow=none;html=1;rounded=0;entryX=0.5;entryY=1;entryDx=0;entryDy=0;exitX=0.5;exitY=0;exitDx=0;exitDy=0;" edge="1" parent="1" source="9aVAmsFQlcjrHRue2oDb-112" target="9aVAmsFQlcjrHRue2oDb-56">
          <mxGeometry width="50" height="50" relative="1" as="geometry">
            <mxPoint x="2510" y="330" as="sourcePoint" />
            <mxPoint x="2560" y="280" as="targetPoint" />
          </mxGeometry>
        </mxCell>
        <mxCell id="9aVAmsFQlcjrHRue2oDb-114" value="用户统计（动态、关注、粉丝、点赞与收藏）" style="rounded=1;whiteSpace=wrap;html=1;" vertex="1" parent="1">
          <mxGeometry x="2610" y="370" width="90" height="60" as="geometry" />
        </mxCell>
        <mxCell id="9aVAmsFQlcjrHRue2oDb-115" value="" style="endArrow=none;html=1;rounded=0;exitX=0.5;exitY=0;exitDx=0;exitDy=0;" edge="1" parent="1" source="9aVAmsFQlcjrHRue2oDb-114">
          <mxGeometry width="50" height="50" relative="1" as="geometry">
            <mxPoint x="2555" y="380" as="sourcePoint" />
            <mxPoint x="2590" y="280" as="targetPoint" />
          </mxGeometry>
        </mxCell>
        <mxCell id="9aVAmsFQlcjrHRue2oDb-116" value="" style="endArrow=none;html=1;rounded=0;entryX=0.5;entryY=1;entryDx=0;entryDy=0;exitX=0.5;exitY=0;exitDx=0;exitDy=0;" edge="1" parent="1" source="9aVAmsFQlcjrHRue2oDb-117" target="9aVAmsFQlcjrHRue2oDb-112">
          <mxGeometry width="50" height="50" relative="1" as="geometry">
            <mxPoint x="2510" y="480" as="sourcePoint" />
            <mxPoint x="2560" y="430" as="targetPoint" />
          </mxGeometry>
        </mxCell>
        <mxCell id="9aVAmsFQlcjrHRue2oDb-117" value="个人信息" style="rounded=1;whiteSpace=wrap;html=1;" vertex="1" parent="1">
          <mxGeometry x="2440" y="480" width="90" height="60" as="geometry" />
        </mxCell>
        <mxCell id="9aVAmsFQlcjrHRue2oDb-119" value="隐私条款规则" style="rounded=1;whiteSpace=wrap;html=1;" vertex="1" parent="1">
          <mxGeometry x="2545" y="480" width="90" height="60" as="geometry" />
        </mxCell>
        <mxCell id="9aVAmsFQlcjrHRue2oDb-120" value="" style="endArrow=none;html=1;rounded=0;entryX=0.5;entryY=1;entryDx=0;entryDy=0;exitX=0.5;exitY=0;exitDx=0;exitDy=0;" edge="1" parent="1" source="9aVAmsFQlcjrHRue2oDb-119" target="9aVAmsFQlcjrHRue2oDb-112">
          <mxGeometry width="50" height="50" relative="1" as="geometry">
            <mxPoint x="2495" y="490" as="sourcePoint" />
            <mxPoint x="2555" y="440" as="targetPoint" />
          </mxGeometry>
        </mxCell>
        <mxCell id="9aVAmsFQlcjrHRue2oDb-121" value="用户反馈" style="rounded=1;whiteSpace=wrap;html=1;" vertex="1" parent="1">
          <mxGeometry x="2650" y="480" width="90" height="60" as="geometry" />
        </mxCell>
        <mxCell id="9aVAmsFQlcjrHRue2oDb-122" value="" style="endArrow=none;html=1;rounded=0;exitX=0.5;exitY=0;exitDx=0;exitDy=0;" edge="1" parent="1" source="9aVAmsFQlcjrHRue2oDb-121">
          <mxGeometry width="50" height="50" relative="1" as="geometry">
            <mxPoint x="2600" y="490" as="sourcePoint" />
            <mxPoint x="2550" y="430" as="targetPoint" />
          </mxGeometry>
        </mxCell>
        <mxCell id="9aVAmsFQlcjrHRue2oDb-123" value="缓存管理" style="rounded=1;whiteSpace=wrap;html=1;" vertex="1" parent="1">
          <mxGeometry x="2750" y="480" width="90" height="60" as="geometry" />
        </mxCell>
        <mxCell id="9aVAmsFQlcjrHRue2oDb-124" value="" style="endArrow=none;html=1;rounded=0;exitX=0.5;exitY=0;exitDx=0;exitDy=0;" edge="1" parent="1" source="9aVAmsFQlcjrHRue2oDb-123">
          <mxGeometry width="50" height="50" relative="1" as="geometry">
            <mxPoint x="2705" y="490" as="sourcePoint" />
            <mxPoint x="2550" y="430" as="targetPoint" />
          </mxGeometry>
        </mxCell>
      </root>
    </mxGraphModel>
  </diagram>
</mxfile>
